:SAMPLES-PER-SECOND 30
:FULLY-SPECIFIED
:DEGREES
92
root  -17.8805 38.195 31.1279 32.5493 -84.1058 -39.6623
RightUpLeg  -22.0211 -13.9679 9.66493
RightLeg  28.2606 -7.065 -4.3329
RightFoot  -0.470714 1.09343 -11.463
RightToes  1.74622e-010 0 -3.6325e-017
Spine  3.32433 -3.73287 10.1531
Spine1  9.17324 -3.96044 3.34333
HEad  -9.98025 -7.24823 -0.2911
LeftShoulder1  8.09469 -11.4087 -47.3626
LeftArm  -14.8509 14.8756 -27.5887
LeftForeArm  37.1713 -42.4637 -7.7894
LeftHand  -0.244104 0.0205437 5.32207
RightShoulder  5.87235 9.08935 40.4663
RightArm  -7.52136 -17.9557 30.5067
RightForeArm  4.63574 12.2955 6.32499
RightHand  -0.760133 0.926918 -14.0545
LeftUpLeg  6.75948 8.1842 10.0177
LeftLeg  53.9164 2.23498 3.75621
LeftFoot  12.1872 1.40894 -7.01757
LeftToes  -3.34697e-010 -1.70107e-010 -9.05613e-011
93
root  -19.2976 38.351 31.0257 38.565 -83.4404 -45.7447
RightUpLeg  -20.054 -14.6354 10.453
RightLeg  29.3824 -6.72308 -4.32994
RightFoot  -2.9044 0.78214 -10.8324
RightToes  1.74622e-010 0 -3.6325e-017
Spine  3.42095 -3.82589 11.4283
Spine1  9.38144 -3.92581 3.78682
HEad  -9.87924 -8.66078 0.769363
LeftShoulder1  8.24327 -11.553 -47.7782
LeftArm  -12.0779 14.7192 -28.3154
LeftForeArm  34.6531 -35.8306 -6.04032
LeftHand  -0.244104 0.0205437 5.32207
RightShoulder  5.82151 8.987 40.4426
RightArm  -3.20418 -16.1913 31.0659
RightForeArm  -0.143161 17.213 5.80645
RightHand  -0.849421 1.3926 -14.6454
LeftUpLeg  -0.571504 5.51598 10.2036
LeftLeg  62.3098 2.02065 4.80274
LeftFoot  12.8986 0.981357 -4.89531
LeftToes  -3.34697e-010 -1.70107e-010 -9.05613e-011
94
root  -20.7634 38.7105 30.9202 52.8523 -84.9347 -60.1552
RightUpLeg  -16.8131 -13.4938 10.0342
RightLeg  28.6752 -5.9134 -3.74228
RightFoot  -4.71347 0.574622 -10.4348
RightToes  1.74622e-010 0 -3.6325e-017
Spine  3.41065 -3.01378 11.772
Spine1  9.36738 -2.92911 3.10888
HEad  -9.38222 -10.0147 1.59238
LeftShoulder1  8.28762 -11.5924 -47.9116
LeftArm  -9.03881 14.5403 -29.2508
LeftForeArm  31.9174 -28.8684 -4.48239
LeftHand  -0.244104 0.0205437 5.32207
RightShoulder  5.85565 9.03505 40.5311
RightArm  0.956401 -14.4499 31.3038
RightForeArm  -3.92598 22.635 5.22127
RightHand  -0.882991 1.4862 -15.0157
LeftUpLeg  -6.17904 5.09685 9.66903
LeftLeg  65.9743 2.21277 6.12228
LeftFoot  8.19205 0.675482 -4.24298
LeftToes  -3.34697e-010 -1.70107e-010 -9.05613e-011
95
root  -22.1805 39.0771 30.8015 92.4117 -86.5556 -99.6998
RightUpLeg  -13.5225 -11.3832 9.15821
RightLeg  27.4518 -4.92169 -3.01576
RightFoot  -6.16449 0.423571 -10.2589
RightToes  1.74622e-010 0 -3.6325e-017
Spine  3.47823 -2.07768 11.4655
Spine1  9.04102 -1.75964 2.13133
HEad  -8.09771 -10.5759 2.004
LeftShoulder1  8.20986 -11.5295 -47.6568
LeftArm  -7.08177 15.7336 -30.2413
LeftForeArm  28.7857 -23.0112 -3.57194
LeftHand  -0.244104 0.0205437 5.32207
RightShoulder  5.90978 9.1634 40.488
RightArm  2.13012 -12.332 31.6463
RightForeArm  -2.74938 27.3463 6.00762
RightHand  -0.827259 0.975028 -15.1677
LeftUpLeg  -10.8107 5.31705 8.74061
LeftLeg  65.5215 2.49787 6.6889
LeftFoot  3.55366 0.54186 -4.29208
LeftToes  -3.34697e-010 -1.70107e-010 -9.05613e-011
96
root  -23.5355 39.397 30.6978 144.455 -85.2443 -151.538
RightUpLeg  -10.6669 -9.63121 8.31969
RightLeg  26.236 -3.45286 -2.08486
RightFoot  -7.18007 0.334003 -10.4906
RightToes  1.74622e-010 0 -3.6325e-017
Spine  3.31732 -1.46683 11.2608
Spine1  8.83565 -0.944974 1.1268
HEad  -6.58869 -10.4754 2.09123
LeftShoulder1  8.17213 -11.4845 -47.5785
LeftArm  -7.34781 18.0022 -30.6061
LeftForeArm  26.909 -18.6715 -3.85489
LeftHand  -0.244104 0.0205437 5.32207
RightShoulder  5.93913 9.26074 40.3692
RightArm  3.02307 -9.86748 32.3634
RightForeArm  -0.0687059 31.8768 7.02496
RightHand  -0.713672 0.165208 -14.9426
LeftUpLeg  -14.7263 4.91336 7.8892
LeftLeg  61.7256 2.80691 6.26539
LeftFoot  0.994481 0.392774 -3.68892
LeftToes  -3.34697e-010 -1.70107e-010 -9.05613e-011
97
root  -24.84 39.6987 30.6288 164.885 -81.4301 -171.561
RightUpLeg  -8.16165 -7.47301 7.39413
RightLeg  24.9449 -1.58306 -0.987168
RightFoot  -7.88567 0.275327 -10.8396
RightToes  1.74622e-010 0 -3.6325e-017
Spine  2.83488 -0.904474 11.4546
Spine1  9.04869 -0.145206 -0.303911
HEad  -5.60691 -10.2071 2.07803
LeftShoulder1  8.22687 -11.4903 -47.8832
LeftArm  -8.29828 20.4634 -30.4994
LeftForeArm  26.5195 -15.6202 -4.50502
LeftHand  -0.244104 0.0205437 5.32207
RightShoulder  5.99276 9.36673 40.4008
RightArm  3.63779 -7.41321 33.1069
RightForeArm  2.54334 36.6026 8.18881
RightHand  -0.603727 -0.572219 -14.5352
LeftUpLeg  -17.2964 4.52527 7.44319
LeftLeg  54.4603 3.45421 5.66291
LeftFoot  -0.983288 0.378864 -4.16066
LeftToes  -3.34697e-010 -1.70107e-010 -9.05613e-011
98
root  -26.0992 39.944 30.5909 173.09 -76.3076 -179.257
RightUpLeg  -6.06437 -3.92088 6.34934
RightLeg  23.8848 0.203559 -0.0782175
RightFoot  -8.65425 0.195506 -10.7626
RightToes  1.74622e-010 0 -3.6325e-017
Spine  2.47448 -0.186423 11.8785
Spine1  9.26408 0.924669 -2.26096
HEad  -5.15029 -9.98161 2.09696
LeftShoulder1  8.23674 -11.4471 -48.081
LeftArm  -8.7853 23.0413 -30.7649
LeftForeArm  27.1378 -13.7073 -4.87731
LeftHand  -0.244104 0.0205437 5.32207
RightShoulder  6.07534 9.50682 40.5271
RightArm  4.3514 -5.19329 33.8491
RightForeArm  3.97308 41.1374 9.53175
RightHand  -0.556578 -1.00418 -14.6741
LeftUpLeg  -18.0898 4.08491 7.5145
LeftLeg  43.7974 4.80027 5.27865
LeftFoot  -2.33097 0.512467 -6.29958
LeftToes  -3.34697e-010 -1.70107e-010 -9.05613e-011
99
root  -27.3406 40.0745 30.5675 176.446 -70.5253 177.841
RightUpLeg  -4.36552 0.583894 5.59184
RightLeg  23.423 1.41901 0.426193
RightFoot  -9.76744 0.0796223 -10.5623
RightToes  1.74622e-010 0 -3.6325e-017
Spine  2.62146 0.444631 12.5065
Spine1  9.01432 1.97484 -4.2609
HEad  -4.88909 -9.80596 2.05771
LeftShoulder1  8.14572 -11.3125 -47.9794
LeftArm  -9.04634 25.9672 -31.6857
LeftForeArm  28.0293 -12.8712 -5.00514
LeftHand  -0.244104 0.0205437 5.32207
RightShoulder  6.10672 9.58001 40.507
RightArm  5.50591 -3.19426 34.8433
RightForeArm  4.59186 44.8883 10.8512
RightHand  -0.573839 -1.10119 -15.4601
LeftUpLeg  -17.4408 1.23003 8.41383
LeftLeg  31.4804 6.50577 4.61175
LeftFoot  -2.621 0.515913 -6.53976
LeftToes  -3.34697e-010 -1.70107e-010 -9.05613e-011
100
root  -28.597 40.0703 30.5448 177.088 -64.5611 177.515
RightUpLeg  -2.93157 5.4162 5.38201
RightLeg  23.7875 2.02326 0.726855
RightFoot  -11.4067 -0.0835495 -10.7817
RightToes  1.74622e-010 0 -3.6325e-017
Spine  3.13671 0.895415 13.3983
Spine1  8.64012 2.81999 -5.83259
HEad  -4.94034 -9.76026 1.96912
LeftShoulder1  8.08191 -11.1938 -47.9873
LeftArm  -9.09494 28.7778 -32.8031
LeftForeArm  28.2858 -12.7264 -5.05716
LeftHand  -0.244104 0.0205437 5.32207
RightShoulder  6.10801 9.59389 40.4698
RightArm  6.89559 -1.33696 35.823
RightForeArm  5.48198 47.7382 11.9635
RightHand  -0.57062 -1.24738 -15.9005
LeftUpLeg  -16.1365 -4.91184 10.521
LeftLeg  20.5879 6.76677 3.11588
LeftFoot  -3.90458 0.316973 -4.46954
LeftToes  -3.34697e-010 -1.70107e-010 -9.05613e-011
101
root  -29.8442 40.0096 30.5033 177.181 -58.1656 177.577
RightUpLeg  -1.69065 10.2585 5.18982
RightLeg  24.6913 2.89704 1.226
RightFoot  -13.1262 -0.260681 -11.0475
RightToes  1.74622e-010 0 -3.6325e-017
Spine  3.61623 1.42314 14.0292
Spine1  8.83591 3.75595 -7.15478
HEad  -5.44488 -9.88402 2.18881
LeftShoulder1  8.1157 -11.1791 -48.2383
LeftArm  -9.03125 30.7643 -33.7806
LeftForeArm  28.1962 -12.5949 -5.15801
LeftHand  -0.244104 0.0205437 5.32207
RightShoulder  6.22046 9.7311 40.8134
RightArm  8.29937 0.391333 36.2426
RightForeArm  6.70629 49.6563 12.7434
RightHand  -0.490028 -1.73343 -15.3997
LeftUpLeg  -14.6737 -8.09436 12.261
LeftLeg  13.164 1.72148 1.34667
LeftFoot  -6.48911 0.230758 -4.72328
LeftToes  -3.34697e-010 -1.70107e-010 -9.05613e-011
102
root  -31.0477 39.9699 30.4412 177.745 -51.3142 177.055
RightUpLeg  -0.869374 14.9027 4.4069
RightLeg  25.8843 4.22514 2.00171
RightFoot  -14.3024 -0.377845 -10.8532
RightToes  1.74622e-010 0 -3.6325e-017
Spine  3.8662 2.04636 13.9187
Spine1  9.47187 4.84031 -8.60692
HEad  -5.84171 -10.0174 2.87579
LeftShoulder1  8.17163 -11.217 -48.448
LeftArm  -9.01162 31.91 -34.6246
LeftForeArm  28.5206 -12.1077 -5.32425
LeftHand  -0.244104 0.0205437 5.32207
RightShoulder  6.44815 10.0029 41.5093
RightArm  9.88801 1.88364 36.2577
RightForeArm  7.33736 50.1978 12.9557
RightHand  -0.427218 -2.082 -14.8037
LeftUpLeg  -12.8928 -2.09936 11.302
LeftLeg  9.1334 -9.30197 0.548648
LeftFoot  -7.01916 0.382416 -8.72239
LeftToes  -3.34697e-010 -1.70107e-010 -9.05613e-011
